# xmcd
#
# Track frame offsets: 
#        150
#        16668
#        30453
#        46444
#        62821
#        78318
#        89939
#        106855
#        123238
#        143098
#        154712
#        172681
#
# Disc length: 2467 seconds
#
# Revision: 0
# Processed by: cddbd v1.5.2PL0 Copyright (c) Steve Scherf et al.
# Submitted via: ExactAudioCopy v0.99pb3
#
DISCID=8c09a10c
DTITLE=Matt Hay - Inside Stories
DYEAR=2007
DGENRE=Acoustic
TTITLE0=Run Away
TTITLE1=Was I A Fool
TTITLE2=Burns of Love
TTITLE3=Cupid's Day Off
TTITLE4=Will You Be A Writer
TTITLE5=Country Town
TTITLE6=Not What I Wanted
TTITLE7=One More Time
TTITLE8=Fade Away
TTITLE9=Home Tonight
TTITLE10=Another Good Man Down
TTITLE11=Fault of Mine
EXTD=
EXTT0=
EXTT1=
EXTT2=
EXTT3=
EXTT4=
EXTT5=
EXTT6=
EXTT7=
EXTT8=
EXTT9=
EXTT10=
EXTT11=
PLAYORDER=
